<svg width="128" height="128" viewBox="0 0 128 128" fill="none" xmlns="http://www.w3.org/2000/svg">
<rect width="128" height="128" fill="#F07F7F"/>
<path fill-rule="evenodd" clip-rule="evenodd" d="M78.6667 34.6667C78.6667 42.7668 85.2332 49.3333 93.3333 49.3333C101.434 49.3333 108 42.7668 108 34.6667C108 26.5665 101.434 20 93.3333 20C85.2332 20 78.6667 26.5665 78.6667 34.6667ZM82.3333 34.6667C82.3333 40.7418 87.2582 45.6667 93.3333 45.6667C99.4085 45.6667 104.333 40.7418 104.333 34.6667C104.333 28.5915 99.4085 23.6667 93.3333 23.6667C87.2582 23.6667 82.3333 28.5915 82.3333 34.6667ZM93.3333 95.9261L104.241 106.834L106.834 104.241L95.9261 93.3333L106.834 82.4255L104.241 79.8327L93.3333 90.7406L82.4255 79.8327L79.8327 82.4255L90.7406 93.3333L79.8327 104.241L82.4255 106.834L93.3333 95.9261ZM20 93.3333C20 101.434 26.5665 108 34.6667 108C42.7668 108 49.3333 101.434 49.3333 93.3333C49.3333 85.2332 42.7668 78.6667 34.6667 78.6667C26.5665 78.6667 20 85.2332 20 93.3333ZM23.6667 93.3333C23.6667 99.4085 28.5915 104.333 34.6667 104.333C40.7418 104.333 45.6667 99.4085 45.6667 93.3333C45.6667 87.2582 40.7418 82.3333 34.6667 82.3333C28.5915 82.3333 23.6667 87.2582 23.6667 93.3333ZM34.6667 37.2594L45.5745 48.1673L48.1673 45.5745L37.2594 34.6667L48.1673 23.7588L45.5745 21.1661L34.6667 32.0739L23.7588 21.1661L21.1661 23.7588L32.0739 34.6667L21.1661 45.5745L23.7588 48.1673L34.6667 37.2594Z" fill="black"/>
</svg>
